<?xml version="1.0" encoding="UTF-8"?>
<svg id="b" data-name="Layer 2" xmlns="http://www.w3.org/2000/svg" viewBox="0 0 1366 188.08">
  <defs>
    <style>
      .d {
        fill: #bfd5fc;
        stroke-width: 0px;
      }
    </style>
  </defs>
  <g id="c" data-name="Shapes">
    <path class="d" d="m151,55c-11.49,45.18,50.98,118.09,122,131,75.07,13.64,140.1-43.32,166-66,38.32-33.56,33.1-47.63,71-79,25.9-21.44,50.74-33.41,71.89-41H220.52c-48.93,30.23-64.69,36.03-69.52,55Z"/>
    <path class="d" d="m921,113c-11.34,6.36-3.78,23.95-18,39-13.62,14.41-32.57,11.01-33,17-.49,6.8,23.29,19.4,46,15,26.46-5.13,51.82-33.4,45-53-5.12-14.73-28.4-24.51-40-18Z"/>
    <path class="d" d="m847,13c14.61,9.2,34.02,21.43,54,17,16.15-3.58,23.55-16.02,32.97-30h-105.71c5.33,4.56,12.1,8.82,18.73,13Z"/>
    <path class="d" d="m1069.98,0c-6.46,9.01-10.56,18.96-10.98,30-1.18,31.51,27.98,64.74,61,77,58.12,21.58,89.9-36.03,174-28,35.48,3.39,55.45,16.09,72,23.73V0h-296.02Z"/>
    <path class="d" d="m0,91.04c27.72-4.74,57.72-25.43,75-50.04,1.63-2.32,13.33-19.47,19.02-41H0v91.04Z"/>
  </g>
</svg>